<?xml version="1.0" encoding="UTF-8"?>
<svg version="1.1" xmlns="http://www.w3.org/2000/svg" width="377" height="384">
<path d="M0 0 C75.57 0 151.14 0 229 0 C224.28799102 21.20404039 219.57107204 42.39412992 214.62884712 63.54372978 C213.65568111 67.71035512 212.68526095 71.87761761 211.71507263 76.04493713 C210.18440351 82.61839161 208.65205597 89.19145335 207.11891168 95.76433092 C204.35703118 107.60519946 201.59773331 119.44666982 198.83971447 131.28843838 C197.87576419 135.42689916 196.91091568 139.56514915 195.94530213 143.70322216 C195.20978312 146.8559685 194.47522383 150.0089385 193.74047852 153.16186523 C193.47612 154.29357651 193.21176147 155.42528778 192.93939209 156.59129333 C192.69715408 157.63156677 192.45491608 158.67184021 192.20533752 159.74363708 C191.99541955 160.64356101 191.78550158 161.54348494 191.56922245 162.47067928 C191.00634059 164.97182581 190.5027834 167.48608298 190 170 C173.83 170 157.66 170 141 170 C140.01 162.08 140.01 162.08 139 154 C137.85150498 150.40683015 137.85150498 150.40683015 136.48828125 146.89453125 C135.35088716 142.48144219 137.51870206 138.6445335 139.4375 134.75 C145.40615331 121.86391901 145.16488702 109.52889476 141 96 C129.41695253 66.4422609 103.20009265 46.14618369 74.80444336 33.71289062 C70.89859284 32.06435559 66.96216626 30.50764156 63 29 C62.35885254 28.75411133 61.71770508 28.50822266 61.05712891 28.25488281 C42.40184755 21.23348564 22.7189687 18.19372844 3 16 C2.49595192 13.89679937 1.99689492 11.79240209 1.5 9.6875 C1.08234375 7.92986328 1.08234375 7.92986328 0.65625 6.13671875 C0 3 0 3 0 0 Z " fill="#000000" transform="translate(135,139)"/>
<path d="M0 0 C0.9213826 -0.01606293 1.8427652 -0.03212585 2.79206848 -0.04867554 C7.00053063 -0.09324338 11.20883745 -0.13418257 15.41748047 -0.15722656 C17.63568613 -0.17378882 19.85383837 -0.20108218 22.07177734 -0.23925781 C25.27428804 -0.29407492 28.47554989 -0.3159076 31.6784668 -0.33056641 C33.15999992 -0.36457047 33.15999992 -0.36457047 34.67146301 -0.39926147 C39.17692296 -0.38546669 42.42054594 -0.33364136 46.02832031 2.54980469 C50.56116916 7.51717199 50.80298026 12.69965952 50.81518555 19.19287109 C50.83967773 19.87865234 50.86416992 20.56443359 50.8894043 21.27099609 C50.91884084 26.41257915 49.75378691 29.30249952 46.44018555 33.19287109 C42.12658895 36.57066367 38.12760578 36.58997385 32.8581543 36.48583984 C32.04397537 36.481595 31.22979645 36.47735016 30.39094543 36.47297668 C27.80284887 36.45624862 25.21554483 36.41860821 22.62768555 36.38037109 C20.86793121 36.36531662 19.1081646 36.35162955 17.34838867 36.33935547 C13.04535118 36.30636445 8.74290252 36.25462349 4.44018555 36.19287109 C4.22869873 37.26601562 4.22869873 37.26601562 4.01293945 38.36083984 C3.36576261 41.63859708 2.71549803 44.91573459 2.06518555 48.19287109 C1.8434668 49.31822266 1.62174805 50.44357422 1.39331055 51.60302734 C1.17416992 52.70517578 0.9550293 53.80732422 0.72924805 54.94287109 C0.53024902 55.94833984 0.33125 56.95380859 0.1262207 57.98974609 C-0.67919064 61.75024316 -1.62044774 65.46355859 -2.55981445 69.19287109 C-1.38297089 69.18620926 -0.20612732 69.17954742 1.00637817 69.17268372 C12.10045314 69.11185187 23.19449424 69.06688842 34.2886982 69.03743458 C39.99225952 69.02178299 45.69568613 69.0005537 51.39916992 68.96655273 C56.90400389 68.93394161 62.40870832 68.91601426 67.91363144 68.90823936 C70.01317254 68.90269904 72.11270661 68.89188015 74.21219254 68.87568092 C77.15439388 68.85388362 80.0960609 68.85090517 83.03833008 68.85229492 C83.90507858 68.84150909 84.77182709 68.83072327 85.6648407 68.8196106 C92.15336116 68.8527444 96.19301323 70.33825845 101.2800293 74.53662109 C105.03119344 79.40787233 104.11761889 85.85922741 104.00268555 91.69287109 C104.01364258 92.90330078 104.02459961 94.11373047 104.03588867 95.36083984 C103.98220233 101.86762459 103.93315422 106.30445386 99.44018555 111.19287109 C94.27827501 116.02175514 87.84342717 115.33839997 81.19229126 115.32658386 C80.25782461 115.32884942 79.32335795 115.33111498 78.36057413 115.33344918 C75.22775627 115.33978185 72.09498175 115.33896029 68.9621582 115.33813477 C66.7166488 115.3411267 64.47113992 115.34452931 62.22563171 115.34831238 C56.12440995 115.35715276 50.02320221 115.3594905 43.92197466 115.36012816 C38.82994449 115.36107739 33.7379176 115.36475582 28.64588869 115.36830026 C17.31952632 115.37597959 5.99317265 115.37896886 -5.33319144 115.37829491 C-6.01254735 115.37825495 -6.69190325 115.378215 -7.3918457 115.37817383 C-8.07203281 115.37813295 -8.75221991 115.37809207 -9.45301874 115.37804995 C-20.47664746 115.37764349 -31.50024202 115.38721362 -42.52386086 115.40131219 C-53.84791075 115.41568052 -65.17193881 115.42239905 -76.49599993 115.42171842 C-82.85157018 115.42146332 -89.20710177 115.42432106 -95.56266403 115.43489647 C-101.53966604 115.44457036 -107.51659237 115.44466145 -113.49359703 115.43737984 C-115.68696516 115.43633314 -117.88033798 115.43870191 -120.07369804 115.4447403 C-123.06853887 115.45245103 -126.06311774 115.44782137 -129.05795288 115.44010925 C-129.92517955 115.44525282 -130.79240622 115.45039638 -131.68591249 115.45569581 C-138.02520614 115.41963982 -143.35299034 115.05641146 -148.37231445 110.81787109 C-153.31266083 104.88945544 -152.89454953 99.79775026 -152.87231445 92.31787109 C-152.88842773 91.24150391 -152.90454102 90.16513672 -152.92114258 89.05615234 C-152.92463889 83.38513395 -152.87705895 79.03018944 -149.55981445 74.19287109 C-145.65115062 70.57735704 -142.6628202 69.08072332 -137.36470032 69.03465271 C-136.51074677 69.02486389 -135.65679321 69.01507507 -134.77696228 69.00498962 C-133.84332352 68.99923416 -132.90968475 68.9934787 -131.94775391 68.98754883 C-130.46943085 68.97269943 -130.46943085 68.97269943 -128.96124268 68.95755005 C-125.69855159 68.925923 -122.43584593 68.90117277 -119.1730957 68.87646484 C-116.91293455 68.85589636 -114.65277726 68.83489992 -112.3926239 68.81349182 C-106.43980021 68.75826023 -100.48694175 68.7088557 -94.53405762 68.66064453 C-88.46123148 68.61043748 -82.38845594 68.55474726 -76.31567383 68.49951172 C-64.39709724 68.39191683 -52.47847675 68.29047477 -40.55981445 68.19287109 C-40.43088806 67.60928833 -40.30196167 67.02570557 -40.16912842 66.42443848 C-38.81869238 60.32158913 -37.45347468 54.22217904 -36.07983398 48.12451172 C-35.56989006 45.85191444 -35.06365326 43.57848188 -34.5612793 41.30419922 C-33.83628369 38.0252092 -33.09777274 34.74950771 -32.35668945 31.47412109 C-32.13672302 30.46546997 -31.91675659 29.45681885 -31.69012451 28.41760254 C-29.55856466 19.1093292 -26.83738174 11.5498342 -18.55981445 6.19287109 C-12.61437982 3.11621261 -6.77557926 0.10755088 0 0 Z " fill="#000000" transform="translate(273.559814453125,-0.19287109375)"/>
<path d="M0 0 C8.45426859 7.8874346 16.21030599 17.92811752 16.6875 29.9375 C16.41521452 35.09277181 14.65564952 37.83032281 10.875 41.3125 C4.03861232 46.03286292 -3.17071323 46.27441778 -11.26948547 46.26544189 C-12.53559317 46.26989858 -12.53559317 46.26989858 -13.82727879 46.2744453 C-16.6482904 46.28309891 -19.46925939 46.2846377 -22.2902832 46.28613281 C-24.3159494 46.29076329 -26.34161473 46.29578826 -28.36727905 46.30117798 C-33.86528627 46.31428041 -39.36328128 46.32074253 -44.86130166 46.32518864 C-48.29770016 46.32812237 -51.73409534 46.33222771 -55.17049217 46.33669281 C-65.92663028 46.35036101 -76.68276078 46.36003143 -87.43890697 46.3638947 C-99.84748602 46.36837628 -112.25595496 46.38593171 -124.66450053 46.4148953 C-134.26213726 46.43651895 -143.85974302 46.44659932 -153.45740384 46.44793582 C-159.18706733 46.4489832 -164.91662722 46.45487702 -170.64626503 46.47275543 C-176.03646251 46.48924822 -181.42647862 46.49138568 -186.81669235 46.48261642 C-188.79152983 46.48184675 -190.76637712 46.48617959 -192.74118996 46.49607468 C-195.4441957 46.50882102 -198.14656163 46.50290288 -200.8495636 46.49249268 C-202.01224061 46.50457728 -202.01224061 46.50457728 -203.19840604 46.51690602 C-211.17845393 46.44538617 -218.37924049 44.43591781 -224.2421875 38.83203125 C-229.62551496 32.73743514 -230.51684896 26.79123099 -230.2578125 18.7265625 C-228.63040115 7.18446046 -221.50865817 -0.44025445 -212.640625 -7.26953125 C-154.37417921 -49.60195462 -54.12005119 -47.17020855 0 0 Z M-114.75 -15.875 C-117.78279114 -12.76024153 -119.64495208 -10.28701255 -119.75 -5.875 C-118.49082695 -1.65306683 -117.309205 0.62934102 -114 3.5625 C-110.14497128 5.41587919 -107.97989818 5.72927117 -103.75 5.125 C-100.66806022 3.4968054 -98.48579333 2.09490938 -96.375 -0.6875 C-95.15124984 -4.97062557 -95.15104348 -8.55729565 -97 -12.625 C-99.59748131 -15.96461883 -101.55348297 -17.51084264 -105.625 -18.75 C-109.58857755 -18.9085431 -111.44193719 -18.03243227 -114.75 -15.875 Z M-171.625 -1.125 C-173.31155054 2.24810108 -173.28103641 5.47321534 -172.75 9.125 C-170.9914131 13.29007424 -168.89798495 15.33382468 -164.75 17.125 C-160.3941302 17.67938343 -158.31299114 17.43305175 -154.4375 15.3125 C-151.75007327 13.12505964 -149.95800559 11.56753231 -149.44921875 8.0390625 C-149.42486793 3.28253651 -149.46028707 -0.14665868 -152.75 -3.875 C-160.53625681 -8.78372712 -165.07878217 -7.23480331 -171.625 -1.125 Z M-60.75 -4.875 C-63.26702337 -2.23212546 -64.57210079 -0.35660835 -65.01171875 3.3046875 C-64.86902001 7.7659007 -63.91752522 10.55378287 -60.6875 13.6875 C-58.05106387 15.62160684 -55.95663183 16.57360191 -52.6875 16.8125 C-47.14957714 15.84556109 -44.81748519 13.73182915 -41.3125 9.3125 C-40.40437994 5.78092199 -40.70354899 2.5652932 -41.75 -0.875 C-44.2701783 -4.284653 -46.25723895 -5.65599509 -50.125 -7.375 C-54.7280915 -8.00990917 -56.789753 -7.26609253 -60.75 -4.875 Z " fill="#000000" transform="translate(229.75,223.875)"/>
<path d="M0 0 C0.94233604 -0.00523668 1.88467208 -0.01047336 2.85556376 -0.01586872 C6.0269307 -0.0309227 9.19813707 -0.03157506 12.36953735 -0.03224182 C14.63770319 -0.03985964 16.90586643 -0.04828648 19.17402649 -0.0574646 C25.34548029 -0.07945294 31.51688454 -0.08821426 37.68837309 -0.09329104 C41.54132523 -0.09692932 45.39426429 -0.10316659 49.24721146 -0.11029243 C59.913654 -0.12975251 70.58008195 -0.14626291 81.24654198 -0.14916897 C81.929197 -0.14935654 82.61185203 -0.14954411 83.31519357 -0.14973736 C84.69911583 -0.15010361 86.08303809 -0.15046731 87.46696036 -0.15082847 C88.49743958 -0.15110269 88.49743958 -0.15110269 89.54873657 -0.15138245 C90.23656053 -0.151563 90.92438448 -0.15174354 91.63305159 -0.15192956 C102.78109459 -0.15547207 113.92894453 -0.18249899 125.07692055 -0.21988034 C136.52069694 -0.25794672 147.9643359 -0.27688506 159.40818465 -0.27762848 C165.83423065 -0.27842295 172.26002763 -0.28723954 178.68601608 -0.31562614 C184.72876526 -0.34172198 190.77105745 -0.34405924 196.81383705 -0.3279705 C199.03385346 -0.32614929 201.25389563 -0.33290693 203.47385597 -0.34878922 C206.500614 -0.36912635 209.52575446 -0.35877026 212.55249023 -0.34057617 C213.43468872 -0.35377614 214.31688721 -0.36697611 215.22581899 -0.38057607 C219.62295642 -0.32004478 221.36719189 -0.14307719 224.94834328 2.64436245 C228.3772147 7.25702106 227.60803188 11.77405551 226.90322876 17.27415466 C224.66179292 27.42948688 220.37576056 35.26154658 211.80947876 41.26634216 C206.60395631 44.01844215 201.68160442 44.56615957 195.88400269 44.5415802 C195.09372264 44.54611131 194.30344259 44.55064243 193.48921466 44.55531085 C190.85014111 44.56793646 188.21127442 44.56633566 185.57217407 44.56468201 C183.67620581 44.57066846 181.78023998 44.57747428 179.88427734 44.58503723 C174.73948413 44.60269386 169.59475745 44.60739251 164.44993687 44.6086688 C161.23329796 44.6100913 158.01667592 44.61436281 154.8000412 44.61966324 C143.57140531 44.63816334 132.34281688 44.64633399 121.11416626 44.64476013 C110.65886047 44.64355917 100.20376127 44.6646527 89.74850774 44.69624746 C80.76315698 44.72242956 71.7778736 44.73312659 62.792485 44.73184931 C57.42996504 44.73134019 52.06762865 44.7369957 46.70514679 44.75820541 C41.65879125 44.77761995 36.61279375 44.7776902 31.56642532 44.76317215 C29.71939952 44.76108686 27.87235111 44.7657682 26.02536392 44.77789307 C4.9190683 44.90742063 4.9190683 44.90742063 -3.90927124 37.14915466 C-9.82222009 30.52497847 -12.36806522 23.6425328 -13.53427124 14.96165466 C-13.62748657 14.27982117 -13.7207019 13.59798767 -13.81674194 12.89549255 C-14.25647248 8.81027019 -14.14819021 5.87233044 -12.09677124 2.27415466 C-8.10870497 -0.38455618 -4.63094397 -0.01261376 0 0 Z " fill="#000000" transform="translate(15.096771240234375,339.72584533691406)"/>
<path d="M0 0 C0.96335266 -0.02263412 1.92670532 -0.04526825 2.91925049 -0.06858826 C11.80337225 -0.26568841 20.68885052 -0.38123133 29.57463741 -0.47180843 C35.53456202 -0.5335728 41.49137486 -0.62210157 47.44970703 -0.77539062 C53.22651765 -0.92334053 59.00050033 -1.00122331 64.77908516 -1.03152657 C66.97008138 -1.05471441 69.16097152 -1.10208932 71.35087395 -1.1750927 C90.23586507 -1.77588911 90.23586507 -1.77588911 97.78653049 5.23817348 C100.52397214 8.1290181 102.9786024 11.16693943 105.38305664 14.33569336 C106.60244727 15.74007503 107.8281642 17.13911879 109.07055664 18.52319336 C109.82079102 19.41071289 109.82079102 19.41071289 110.58618164 20.31616211 C114.63042418 24.86153904 119.04735819 29.07055781 123.38305664 33.33569336 C127.781435 29.81699067 131.60673894 26.0809309 135.38305664 21.89819336 C135.85267822 21.39739258 136.3222998 20.8965918 136.80615234 20.38061523 C139.55297537 17.43981902 142.06940353 14.4485424 144.47680664 11.22241211 C148.71242226 5.89548353 152.64176857 1.17835731 159.51782227 -0.37036133 C172.17170921 -1.65154047 186.35788012 -0.97412366 197.75805664 5.14819336 C203.49778518 9.93130048 207.01160281 14.55924612 207.75805664 22.14819336 C207.53226606 28.82155943 204.48283014 33.5955776 199.75805664 38.14819336 C190.92648921 46.26629356 177.51521255 44.76352921 166.41430664 44.72387695 C164.49804384 44.72794711 162.58178339 44.73329147 160.66552734 44.73980713 C155.48373614 44.75343372 150.30212499 44.74820134 145.12033081 44.73866987 C139.68511487 44.7310491 134.24991385 44.73812559 128.81469727 44.74282837 C119.68901821 44.74827889 110.56341211 44.74111278 101.43774414 44.72680664 C90.90285648 44.71048152 80.36814303 44.71577052 69.83325958 44.73228586 C60.77139042 44.74592077 51.70957356 44.74781057 42.64769745 44.73996985 C37.24280443 44.73530437 31.83799316 44.73463749 26.43310547 44.74457932 C21.3506153 44.7532759 16.26834871 44.74717796 11.18588257 44.72989655 C9.32596202 44.72594606 7.4660225 44.72704096 5.60610962 44.73368454 C-18.98351175 44.8133882 -18.98351175 44.8133882 -28.61694336 35.33569336 C-32.1405619 30.98479047 -34.05168088 25.93552665 -33.61694336 20.33569336 C-31.69488204 13.58586624 -28.40402908 8.53545272 -22.24975586 4.96069336 C-14.67988749 1.0072903 -8.43719636 0.17163839 0 0 Z " fill="#000000" transform="translate(34.616943359375,281.664306640625)"/>
<path d="M0 0 C15.84 0 31.68 0 48 0 C47.731875 3.939375 47.46375 7.87875 47.1875 11.9375 C47.11039795 13.16073975 47.0332959 14.38397949 46.95385742 15.64428711 C46.35969261 23.6450572 45.51841048 32.4647097 39.73364258 38.59594727 C30.46643203 46.10133072 21.09387865 46.79436217 9.75 46.375 C8.31125469 46.34481653 6.87244729 46.31745571 5.43359375 46.29296875 C1.95441009 46.22773981 -1.52237908 46.12470321 -5 46 C-4.65066406 44.77023437 -4.30132812 43.54046875 -3.94140625 42.2734375 C-3.48160443 40.64067185 -3.02197829 39.00785672 -2.5625 37.375 C-2.33240234 36.56675781 -2.10230469 35.75851562 -1.86523438 34.92578125 C0.06594354 28.04071216 1.13971959 21.7530188 1.125 14.5625 C1.12757813 13.30566406 1.13015625 12.04882812 1.1328125 10.75390625 C1.04686634 6.44197604 1.04686634 6.44197604 0 0 Z " fill="#000000" transform="translate(274,335)"/>
</svg>
